<svg id="Layer_2" data-name="Layer 2" xmlns="http://www.w3.org/2000/svg" viewBox="0 0 617.7 67.76"><defs><style>.cls-1{fill:#df6b9e;}.cls-2{fill:#622e45;}.cls-3{fill:#8b4262;}</style></defs><polygon class="cls-1" points="37.79 0 0 0 0 14.34 0 16.29 0 67.77 16.61 67.77 16.61 16.29 37.79 16.29 37.79 0"/><rect class="cls-1" x="68.09" width="16.94" height="67.76"/><polygon class="cls-1" points="134.23 53.1 134.23 0 116.96 0 116.96 67.77 134.23 67.77 154.75 67.77 154.75 53.1 134.23 53.1"/><polygon class="cls-1" points="436.89 53.1 436.89 0 419.62 0 419.62 67.77 436.89 67.77 457.41 67.77 457.41 53.1 436.89 53.1"/><polygon class="cls-1" points="522.35 15.2 522.35 0 501.83 0 484.56 0 484.56 67.77 501.83 67.77 522.35 67.77 522.35 53.1 501.83 53.1 501.83 15.2 522.35 15.2"/><polygon class="cls-1" points="617.7 67.77 593.15 32.47 615.31 0 595.55 0 583.06 17.96 570.57 0 550.8 0 572.97 32.47 548.42 67.77 569.05 67.77 583.06 47.24 597.07 67.77 617.7 67.77"/><circle class="cls-2" cx="514.64" cy="34.4" r="9.39"/><circle class="cls-2" cx="358.61" cy="55.91" r="8.52"/><circle class="cls-2" cx="29.71" cy="33.97" r="8.96"/><polygon class="cls-3" points="185.92 0 205.03 44.31 227.62 0 250.43 47.13 273.01 0 301.79 67.77 292.78 67.77 272.58 21.5 250.86 67.77 227.4 20.63 203.81 66.77 176.8 0 185.92 0"/><polygon class="cls-1" points="392.9 67.77 373.79 67.77 358.61 21.29 342.95 67.77 323.84 67.77 348.38 0 368.58 0 392.9 67.77"/></svg>